<svg xmlns="http://www.w3.org/2000/svg" xmlns:xlink="http://www.w3.org/1999/xlink" viewBox="0 0 434.94 336.79"><defs><style>.cls-1{fill:#fff;}.cls-2{fill:#328cc1;}.cls-3{fill:#0b3c5d;}.cls-4{fill:#f7f7f7;}.cls-5{opacity:0.25;}.cls-6{fill:#d98e9d;}.cls-7{fill:#e0e4ed;}.cls-8{fill:#2d2b42;}.cls-9{fill:#737afb;opacity:0.3;isolation:isolate;}.cls-10{fill:#37354c;}.cls-11{fill:#d9b310;}.cls-12{fill:#b2664f;}.cls-13{fill:#9b5342;}.cls-14{fill:#bcbace;}.cls-15{fill:sienna;}.cls-16{fill:#eebcc5;}.cls-17{fill:url(#linear-gradient);}.cls-18{fill:#1d2731;}</style><linearGradient id="linear-gradient" x1="208.44" y1="98.83" x2="163.6" y2="97.77" gradientTransform="matrix(1, 0, 0, -1, 0, 338)" gradientUnits="userSpaceOnUse"><stop offset="0" stop-color="#484ec2" stop-opacity="0"/><stop offset="1" stop-color="#444bcc" stop-opacity="0.5"/></linearGradient></defs><title>illust-3-sch-1</title><g id="Layer_2" data-name="Layer 2"><g id="Layer_1-2" data-name="Layer 1"><g id="OBJECTS"><path class="cls-1" d="M392.75,0H42.18A12.74,12.74,0,0,0,29.46,12.72V254.15h376V12.72A12.73,12.73,0,0,0,392.75,0Z"/><rect class="cls-1" y="249.81" width="434.94" height="14.67" rx="4.45"/><path class="cls-2" d="M392.3,5.36H42.64a7.84,7.84,0,0,0-7.86,7.84h0V250.53H400.15V13.21a7.84,7.84,0,0,0-7.83-7.85Z"/><rect class="cls-3" x="47.91" y="22.91" width="339.11" height="219.25"/><path class="cls-4" d="M219.37,15.21a1.91,1.91,0,1,1-1.91-1.91h0a1.9,1.9,0,0,1,1.9,1.9Z"/><path class="cls-2" d="M254,256.24H180.91a1.74,1.74,0,1,0,0,3.48H254a1.74,1.74,0,0,0,0-3.48Z"/><g class="cls-5"><rect class="cls-6" x="90.47" y="35" width="34" height="6"/><rect class="cls-1" x="59.76" y="35" width="14" height="6"/><rect class="cls-1" x="59.76" y="46" width="14" height="6"/><rect class="cls-1" x="59.76" y="59" width="14" height="6"/><rect class="cls-1" x="59.76" y="72" width="14" height="6"/><rect class="cls-1" x="59.76" y="85" width="14" height="6"/><rect class="cls-1" x="59.76" y="98" width="14" height="6"/><rect class="cls-7" x="131.47" y="35" width="114" height="6"/><rect class="cls-6" x="102.47" y="46" width="34" height="6"/><rect class="cls-7" x="143.47" y="46" width="114.01" height="6"/><rect class="cls-6" x="122.47" y="59" width="34" height="6"/><rect class="cls-7" x="163.47" y="59" width="114" height="6"/><rect class="cls-6" x="142.47" y="72" width="34" height="6"/><rect class="cls-7" x="183.47" y="72" width="114.01" height="6"/><rect class="cls-6" x="122.47" y="85" width="34" height="6"/><rect class="cls-7" x="163.47" y="85" width="174.01" height="6"/><rect class="cls-6" x="102.47" y="98" width="34" height="6"/><rect class="cls-7" x="143.47" y="98" width="74" height="6"/></g><g class="cls-5"><rect class="cls-6" x="90.47" y="115.02" width="34" height="6"/><rect class="cls-1" x="59.76" y="115.02" width="14" height="6"/><rect class="cls-1" x="59.76" y="126.02" width="14" height="6"/><rect class="cls-1" x="59.76" y="139.02" width="14" height="6"/><rect class="cls-1" x="59.76" y="152.02" width="14" height="6"/><rect class="cls-1" x="59.76" y="165.02" width="14" height="6"/><rect class="cls-1" x="59.76" y="178.02" width="14" height="6"/><rect class="cls-7" x="131.47" y="115.02" width="114" height="6"/><rect class="cls-6" x="102.47" y="126.02" width="34" height="6"/><rect class="cls-7" x="143.47" y="126.02" width="114.01" height="6"/><rect class="cls-6" x="122.47" y="139.02" width="34" height="6"/><rect class="cls-7" x="163.47" y="139.02" width="114" height="6"/><rect class="cls-6" x="90.47" y="195.02" width="34" height="6"/><rect class="cls-1" x="59.76" y="195.02" width="14" height="6"/><rect class="cls-1" x="59.76" y="206.02" width="14" height="6"/><rect class="cls-1" x="59.76" y="219.02" width="14" height="6"/><rect class="cls-7" x="131.47" y="195.02" width="114" height="6"/><rect class="cls-6" x="102.47" y="206.02" width="34" height="6"/><rect class="cls-7" x="143.47" y="206.02" width="114.01" height="6"/><rect class="cls-6" x="122.47" y="219.02" width="34" height="6"/><rect class="cls-7" x="163.47" y="219.02" width="114" height="6"/><rect class="cls-6" x="142.47" y="152.02" width="34" height="6"/><rect class="cls-7" x="183.47" y="152.02" width="174.01" height="6"/><rect class="cls-6" x="122.47" y="165.02" width="34" height="6"/><rect class="cls-7" x="163.47" y="165.02" width="114" height="6"/><rect class="cls-6" x="102.47" y="178.02" width="34" height="6"/><rect class="cls-7" x="143.47" y="178.02" width="114.01" height="6"/></g><path class="cls-8" d="M321.51,175.26a1,1,0,0,0,.1,1.33c.36.21.9-.05,1.21-.58a1,1,0,0,0-.11-1.33C322.35,174.48,321.81,174.73,321.51,175.26Z"/><path class="cls-8" d="M313.85,176.09c-.34.58-.29,1.23.11,1.46s1-.05,1.32-.63.29-1.23-.11-1.46S314.18,175.51,313.85,176.09Z"/><rect class="cls-9" x="192.11" y="249.81" width="13.31" height="14.67"/><rect class="cls-9" x="238.52" y="250.56" width="13.31" height="13.92"/><path class="cls-10" d="M211.23,154l-5.4,6.63-2.7,5.65-2.48,7.09s-4.38,4.09-4.14,4.15-.26,5,.24,5.7,5.42,6.63,5.42,6.63,4.76,3.11,6.67,3.52S220.32,198,220.32,198l5.89-5.65-2.21-3s6.14-3.68,6.88-4.17,3.68-3.44,3.68-3.44a26.19,26.19,0,0,0-.55-4.23c-.43-1.67-3.38-9.77-3.38-9.77s-3.93-5.65-4.42-6.63-2.7-4.17-2.7-4.17Z"/><path class="cls-11" d="M201.18,189.83l29.46-.23a4.09,4.09,0,0,1,4.12,4.06l.3,38.28h0l-37.65.29h0l-.3-38.28a4.1,4.1,0,0,1,4.06-4.12Z"/><path class="cls-10" d="M208.8,189.82s2.84,3.28,2.84,10.16.23,19.52.23,19.52h8.45V199.6a15.55,15.55,0,0,1,4.69-12l-9.21.24Z"/><path class="cls-12" d="M215.64,197.81h0a4.58,4.58,0,0,1-4.61-4.55h0l-.11-13.92a.61.61,0,0,1,.6-.62h0l7.93-.06a.61.61,0,0,1,.62.6h0l.11,13.92A4.59,4.59,0,0,1,215.64,197.81Z"/><path class="cls-13" d="M231.57,176.13v-.47a15.9,15.9,0,0,0-.51-4v-1.78A15.93,15.93,0,0,0,215.2,154h0a15.93,15.93,0,0,0-15.88,15.88v6.25Z"/><path class="cls-12" d="M229.87,171.7v-1.53a14.69,14.69,0,0,0-14.65-14.65h0a14.7,14.7,0,0,0-14.65,14.65v6a5.21,5.21,0,0,0,.14,1.18,14.88,14.88,0,1,0,29.51-3.83,14.25,14.25,0,0,0-.35-1.82Z"/><path class="cls-10" d="M210.72,178a1.13,1.13,0,1,1-1.13-1.13h0a1.12,1.12,0,0,1,1.12,1.12Z"/><path class="cls-10" d="M221.42,178a1.13,1.13,0,1,1-1.13-1.13,1.12,1.12,0,0,1,1.13,1.11Z"/><path class="cls-12" d="M204.79,177.49a4.14,4.14,0,1,1-4.14-4.15,4.14,4.14,0,0,1,4.14,4.15Z"/><path class="cls-12" d="M234,177.49a4.14,4.14,0,1,1-4.14-4.15,4.14,4.14,0,0,1,4.14,4.15Z"/><path class="cls-14" d="M216.34,248.94l-18.45,8.66,3.42,56.27H194.7l-13.37-57.7a6.07,6.07,0,0,1,2.75-6.55l17.45-10.7Z"/><path class="cls-15" d="M200.55,174.76a2.74,2.74,0,0,0,0,5.45Z"/><path class="cls-15" d="M229.59,174.76a2.74,2.74,0,0,1,0,5.45Z"/><rect class="cls-10" x="211.79" y="201.33" width="8.51" height="45.35"/><path class="cls-10" d="M225.51,171.71c.39,1.25,1,2.7,2.24,3a3.65,3.65,0,0,0,2.9-.85,2.08,2.08,0,0,0,1-1.3,2.24,2.24,0,0,0-.39-1.35,24,24,0,0,0-3-4.65c-1.09-1.22-3.06-3.22-4.22-1.11C223.28,166.94,225.06,170.28,225.51,171.71Z"/><path class="cls-10" d="M227.05,162.32a19.34,19.34,0,0,0-11.56-3.84l.17-2.63c-4.3,0-8.46,4.05-11.69,6.44,2.82,3.2,6.95,6.23,11.55,6.23S224.23,165.5,227.05,162.32Z"/><path class="cls-11" d="M176.55,224.42a3.5,3.5,0,0,1-.48-2.8c2.12-8.47,17.27-28.41,17.93-29.24,1-1.25,6.18-2.38,6.18-2.38l.6,13.68L187.1,219.76a3.5,3.5,0,0,0-.47,3.8l10.8,22-5.69,1.6Z"/><path class="cls-14" d="M225.91,238.92l17.46,10.7a6,6,0,0,1,2.74,6.55l-13.36,57.7h-6.61l3.42-56.27-18.46-8.66Z"/><path class="cls-11" d="M253.15,224a3.66,3.66,0,0,0,.44-2.53c-1.66-8.28-15.22-28.21-15.89-29.05-1-1.25-6.18-2.38-6.18-2.38l-.59,13.68,11.76,15.7a3.81,3.81,0,0,1,.49,3.67l-8.91,22.47,5.7,1.6Z"/><path class="cls-10" d="M205.06,171.71c-.39,1.25-1,2.7-2.24,3a3.62,3.62,0,0,1-2.89-.85,2.13,2.13,0,0,1-1.05-1.3,2.24,2.24,0,0,1,.39-1.35,24,24,0,0,1,3-4.65c1.1-1.22,3.06-3.22,4.22-1.11C207.3,166.94,205.51,170.28,205.06,171.71Z"/><path class="cls-16" d="M200,245.73a4.77,4.77,0,1,1-4.77-4.77,4.78,4.78,0,0,1,4.77,4.77Z"/><path class="cls-11" d="M228.45,158.39c-1.95-5.12-12.89-6.85-13-6.88h0c-.14,0-11.08,1.76-13,6.88S194.55,178,194.8,182s7.37,7.86,7.37,7.86h6.63s-9.8-6.67-10.8-9.62,2.7-6.13,3.66-6.9a59.83,59.83,0,0,1,10.73-13.74,4.51,4.51,0,0,1,6.08,0,59.56,59.56,0,0,1,10.73,13.74c1,.77,4.65,4,3.66,6.9s-9.78,9.53-9.78,9.53h5.61s7.12-3.93,7.37-7.86S230.42,163.55,228.45,158.39Z"/><path class="cls-16" d="M241.63,246.59a4.77,4.77,0,1,0-5,4.48h0A4.78,4.78,0,0,0,241.63,246.59Z"/><path class="cls-11" d="M234.61,225v20.5s-11.58,4.33-13.24,4.11-1.65-18.23-1.65-18.23l2.13-5.47Z"/><path class="cls-11" d="M197.43,225v20.5s11.58,4.33,13.24,4.11,1.65-18.23,1.65-18.23l-2.13-5.47Z"/><path class="cls-3" d="M201.31,313.87l.91,8.43s-8.54,14.14-11.91,14.48-1.91-5.62,0-8.34S196,320,196,320l1.43-6.12Z"/><path class="cls-3" d="M227.33,313.87l-.91,8.43s8.54,14.14,11.91,14.48,1.91-5.62,0-8.34-5.69-8.45-5.69-8.45l-1.43-6.12Z"/><path class="cls-1" d="M194.7,251.34H238a3.53,3.53,0,0,0,3.44-2.73L245.09,233a4.92,4.92,0,0,0-4-5.71,4.67,4.67,0,0,0-.91-.08l-49.59.38a4.91,4.91,0,0,0-4.88,4.94,4.7,4.7,0,0,0,.09.92L191.37,249A3.53,3.53,0,0,0,194.7,251.34Z"/><path class="cls-17" d="M221.18,227.31l-30.56.24a4.91,4.91,0,0,0-4.88,4.94,4.7,4.7,0,0,0,.09.92L191.37,249a3.53,3.53,0,0,0,3.33,2.35h7.77Z"/><ellipse class="cls-18" cx="214.95" cy="241.29" rx="4.36" ry="4.03"/></g></g></g></svg>