<?xml version="1.0" encoding="utf-8"?>
<!-- Generator: Adobe Illustrator 23.0.1, SVG Export Plug-In . SVG Version: 6.00 Build 0)  -->
<svg version="1.1" id="Layer_1" xmlns="http://www.w3.org/2000/svg" xmlns:xlink="http://www.w3.org/1999/xlink" x="0px" y="0px"
	 viewBox="0 0 434.9 336.8" style="enable-background:new 0 0 434.9 336.8;" xml:space="preserve">
<style type="text/css">
	.st0{fill:#1D2731;}
	.st1{fill:#0B3C5D;}
	.st2{fill:#F7F7F7;}
	.st3{opacity:0.25;}
	.st4{fill:#D98E9D;}
	.st5{fill:#FFFFFF;}
	.st6{fill:#E0E4ED;}
	.st7{fill:#2D2B42;}
	.st8{opacity:0.3;fill:#737AFB;enable-background:new    ;}
	.st9{fill:#37354C;}
	.st10{fill:#D9B310;}
	.st11{fill:#B2664F;}
	.st12{fill:#9B5342;}
	.st13{fill:#BCBACE;}
	.st14{fill:#A0522D;}
	.st15{fill:#EEBCC5;}
	.st16{fill:url(#SVGID_1_);}
</style>
<title>illust-3-sch-1</title>
<g>
	<g id="Layer_1-2">
		<g id="OBJECTS">
			<path class="st0" d="M392.8,0H42.2c-7,0-12.7,5.7-12.7,12.7v241.4h376V12.7C405.5,5.7,399.8,0,392.8,0z"/>
			<path class="st0" d="M4.4,249.8h426c2.5,0,4.5,2,4.5,4.4v5.8c0,2.5-2,4.5-4.5,4.5H4.4c-2.5,0-4.4-2-4.4-4.5v-5.8
				C0,251.8,2,249.8,4.4,249.8z"/>
			<path class="st1" d="M392.3,5.4H42.6c-4.3,0-7.8,3.5-7.9,7.8c0,0,0,0,0,0l0,0v237.3h365.4V13.2C400.2,8.9,396.6,5.4,392.3,5.4
				L392.3,5.4z"/>
			<rect x="34.8" y="22.9" class="st1" width="365.4" height="219.3"/>
			<path class="st2" d="M219,3c0-0.8-0.7-1.5-1.6-1.5c-0.9,0-1.6,0.7-1.6,1.5c0,0.8,0.7,1.5,1.6,1.5l0,0C218.3,4.6,219,3.9,219,3
				L219,3z"/>
			<path class="st2" d="M254,256.2h-73.1c-1,0-1.7,0.8-1.7,1.7c0,1,0.8,1.7,1.7,1.7H254c1,0,1.7-0.8,1.7-1.7
				C255.7,257,255,256.2,254,256.2L254,256.2z"/>
			<g class="st3">
				<rect x="83.2" y="35" class="st4" width="42.4" height="6"/>
				<rect x="44.9" y="35" class="st5" width="17.5" height="6"/>
				<rect x="44.9" y="46" class="st5" width="17.5" height="6"/>
				<rect x="44.9" y="59" class="st5" width="17.5" height="6"/>
				<rect x="44.9" y="72" class="st5" width="17.5" height="6"/>
				<rect x="44.9" y="85" class="st5" width="17.5" height="6"/>
				<rect x="44.9" y="98" class="st5" width="17.5" height="6"/>
				<rect x="134.3" y="35" class="st6" width="142.2" height="6"/>
				<rect x="98.1" y="46" class="st4" width="42.4" height="6"/>
				<rect x="149.3" y="46" class="st6" width="142.2" height="6"/>
				<rect x="123.1" y="59" class="st4" width="42.4" height="6"/>
				<rect x="174.2" y="59" class="st6" width="142.2" height="6"/>
				<rect x="148" y="72" class="st4" width="42.4" height="6"/>
				<rect x="199.2" y="72" class="st6" width="142.2" height="6"/>
				<rect x="123.1" y="85" class="st4" width="42.4" height="6"/>
				<rect x="174.2" y="85" class="st6" width="217.1" height="6"/>
				<rect x="98.1" y="98" class="st4" width="42.4" height="6"/>
				<rect x="149.3" y="98" class="st6" width="92.3" height="6"/>
			</g>
			<g class="st3">
				<rect x="77.1" y="115" class="st4" width="35.7" height="6"/>
				<rect x="44.9" y="115" class="st5" width="14.7" height="6"/>
				<rect x="44.9" y="126" class="st5" width="14.7" height="6"/>
				<rect x="44.9" y="139" class="st5" width="14.7" height="6"/>
				<rect x="44.9" y="152" class="st5" width="14.7" height="6"/>
				<rect x="44.9" y="165" class="st5" width="14.7" height="6"/>
				<rect x="44.9" y="178" class="st5" width="14.7" height="6"/>
				<rect x="120.2" y="115" class="st6" width="119.7" height="6"/>
				<rect x="89.7" y="126" class="st4" width="35.7" height="6"/>
				<rect x="132.8" y="126" class="st6" width="119.7" height="6"/>
				<rect x="110.7" y="139" class="st4" width="35.7" height="6"/>
				<rect x="153.8" y="139" class="st6" width="119.7" height="6"/>
				<rect x="77.1" y="195" class="st4" width="35.7" height="6"/>
				<rect x="44.9" y="195" class="st5" width="14.7" height="6"/>
				<rect x="44.9" y="206" class="st5" width="14.7" height="6"/>
				<rect x="44.9" y="219" class="st5" width="14.7" height="6"/>
				<rect x="120.2" y="195" class="st6" width="119.7" height="6"/>
				<rect x="89.7" y="206" class="st4" width="35.7" height="6"/>
				<rect x="132.8" y="206" class="st6" width="119.7" height="6"/>
				<rect x="110.7" y="219" class="st4" width="35.7" height="6"/>
				<rect x="153.8" y="219" class="st6" width="119.7" height="6"/>
				<rect x="131.7" y="152" class="st4" width="35.7" height="6"/>
				<rect x="174.8" y="152" class="st6" width="182.7" height="6"/>
				<rect x="110.7" y="165" class="st4" width="35.7" height="6"/>
				<rect x="153.8" y="165" class="st6" width="119.7" height="6"/>
				<rect x="89.7" y="178" class="st4" width="35.7" height="6"/>
				<rect x="132.8" y="178" class="st6" width="119.7" height="6"/>
			</g>
			<path class="st7" d="M321.5,175.3c-0.3,0.4-0.3,1,0.1,1.3c0.4,0.2,0.9-0.1,1.2-0.6c0.3-0.4,0.3-1-0.1-1.3
				C322.4,174.5,321.8,174.7,321.5,175.3z"/>
			<path class="st7" d="M313.9,176.1c-0.3,0.6-0.3,1.2,0.1,1.5s1-0.1,1.3-0.6s0.3-1.2-0.1-1.5S314.2,175.5,313.9,176.1z"/>
			<rect x="192.1" y="249.8" class="st8" width="13.3" height="14.7"/>
			<rect x="238.5" y="250.6" class="st8" width="13.3" height="13.9"/>
			<path class="st9" d="M211.2,154l-5.4,6.6l-2.7,5.6l-2.5,7.1c0,0-4.4,4.1-4.1,4.1s-0.3,5,0.2,5.7s5.4,6.6,5.4,6.6s4.8,3.1,6.7,3.5
				s11.5,4.6,11.5,4.6l5.9-5.6l-2.2-3c0,0,6.1-3.7,6.9-4.2s3.7-3.4,3.7-3.4c-0.1-1.4-0.3-2.8-0.6-4.2c-0.4-1.7-3.4-9.8-3.4-9.8
				s-3.9-5.6-4.4-6.6s-2.7-4.2-2.7-4.2L211.2,154z"/>
			<path class="st10" d="M201.2,189.8l29.5-0.2c2.3,0,4.1,1.8,4.1,4.1c0,0,0,0,0,0l0.3,38.3l0,0l-37.7,0.3l0,0l-0.3-38.3
				C197.1,191.7,198.9,189.9,201.2,189.8L201.2,189.8z"/>
			<path class="st9" d="M208.8,189.8c0,0,2.8,3.3,2.8,10.2s0.2,19.5,0.2,19.5h8.4v-19.9c-0.2-4.5,1.5-8.9,4.7-12l-9.2,0.2
				L208.8,189.8z"/>
			<path class="st11" d="M215.6,197.8L215.6,197.8c-2.5,0-4.6-2-4.6-4.5c0,0,0,0,0,0l0,0l-0.1-13.9c0-0.3,0.3-0.6,0.6-0.6
				c0,0,0,0,0,0l0,0l7.9-0.1c0.3,0,0.6,0.3,0.6,0.6c0,0,0,0,0,0l0,0l0.1,13.9C220.2,195.7,218.2,197.8,215.6,197.8z"/>
			<path class="st12" d="M231.6,176.1v-0.5c0-1.3-0.2-2.7-0.5-4v-1.8c0-8.8-7.1-15.8-15.9-15.9l0,0c-8.8,0-15.9,7.1-15.9,15.9v6.3
				H231.6z"/>
			<path class="st11" d="M229.9,171.7v-1.5c0-8.1-6.6-14.6-14.6-14.6l0,0c-8.1,0-14.6,6.6-14.6,14.6v6c0,0.4,0,0.8,0.1,1.2
				c1,8.2,8.3,14,16.5,13.1c8.2-1,14-8.3,13.1-16.5c0-0.1,0-0.3,0-0.4C230.1,172.9,230,172.3,229.9,171.7L229.9,171.7z"/>
			<path class="st9" d="M210.7,178c0,0.6-0.5,1.1-1.1,1.1c-0.6,0-1.1-0.5-1.1-1.1c0-0.6,0.5-1.1,1.1-1.1l0,0
				C210.2,176.9,210.7,177.4,210.7,178L210.7,178z"/>
			<path class="st9" d="M221.4,178c0,0.6-0.5,1.1-1.1,1.1c-0.6,0-1.1-0.5-1.1-1.1c0-0.6,0.5-1.1,1.1-1.1
				C220.9,176.9,221.4,177.4,221.4,178C221.4,178,221.4,178,221.4,178L221.4,178z"/>
			<path class="st11" d="M204.8,177.5c0,2.3-1.9,4.1-4.1,4.1c-2.3,0-4.1-1.9-4.1-4.1c0-2.3,1.9-4.1,4.1-4.1
				C202.9,173.3,204.8,175.2,204.8,177.5C204.8,177.5,204.8,177.5,204.8,177.5z"/>
			<path class="st11" d="M234,177.5c0,2.3-1.9,4.1-4.1,4.1c-2.3,0-4.1-1.9-4.1-4.1c0-2.3,1.9-4.1,4.1-4.1
				C232.1,173.3,234,175.2,234,177.5C234,177.5,234,177.5,234,177.5z"/>
			<path class="st13" d="M216.3,248.9l-18.4,8.7l3.4,56.3h-6.6l-13.4-57.7c-0.6-2.5,0.5-5.2,2.8-6.6l17.4-10.7L216.3,248.9z"/>
			<path class="st14" d="M200.6,174.8c-1.5,0.2-2.6,1.5-2.4,3c0.1,1.3,1.2,2.3,2.4,2.4V174.8z"/>
			<path class="st14" d="M229.6,174.8c1.5,0.2,2.6,1.5,2.4,3c-0.1,1.3-1.2,2.3-2.4,2.4V174.8z"/>
			<rect x="211.8" y="201.3" class="st9" width="8.5" height="45.3"/>
			<path class="st9" d="M225.5,171.7c0.4,1.3,1,2.7,2.2,3c1,0.1,2.1-0.2,2.9-0.9c0.5-0.3,0.9-0.7,1-1.3c0-0.5-0.1-1-0.4-1.4
				c-0.8-1.7-1.8-3.2-3-4.6c-1.1-1.2-3.1-3.2-4.2-1.1C223.3,166.9,225.1,170.3,225.5,171.7z"/>
			<path class="st9" d="M227.1,162.3c-3.3-2.5-7.4-3.8-11.6-3.8l0.2-2.6c-4.3,0-8.5,4.1-11.7,6.4c2.8,3.2,6.9,6.2,11.6,6.2
				S224.2,165.5,227.1,162.3z"/>
			<path class="st10" d="M176.6,224.4c-0.5-0.8-0.7-1.8-0.5-2.8c2.1-8.5,17.3-28.4,17.9-29.2c1-1.3,6.2-2.4,6.2-2.4l0.6,13.7
				l-13.7,16.1c-0.9,1.1-1.1,2.6-0.5,3.8l10.8,22l-5.7,1.6L176.6,224.4z"/>
			<path class="st13" d="M225.9,238.9l17.5,10.7c2.2,1.4,3.4,4,2.7,6.5l-13.4,57.7h-6.6l3.4-56.3l-18.5-8.7L225.9,238.9z"/>
			<path class="st10" d="M253.1,224c0.4-0.8,0.6-1.7,0.4-2.5c-1.7-8.3-15.2-28.2-15.9-29.1c-1-1.3-6.2-2.4-6.2-2.4l-0.6,13.7
				l11.8,15.7c0.8,1.1,1,2.4,0.5,3.7l-8.9,22.5l5.7,1.6L253.1,224z"/>
			<path class="st9" d="M205.1,171.7c-0.4,1.3-1,2.7-2.2,3c-1,0.1-2.1-0.2-2.9-0.9c-0.5-0.3-0.9-0.7-1.1-1.3c0-0.5,0.1-1,0.4-1.4
				c0.8-1.7,1.8-3.2,3-4.6c1.1-1.2,3.1-3.2,4.2-1.1C207.3,166.9,205.5,170.3,205.1,171.7z"/>
			<path class="st15" d="M200,245.7c0,2.6-2.1,4.8-4.8,4.8c-2.6,0-4.8-2.1-4.8-4.8c0-2.6,2.1-4.8,4.8-4.8
				C197.9,241,200,243.1,200,245.7z"/>
			<path class="st10" d="M228.4,158.4c-1.9-5.1-12.9-6.9-13-6.9l0,0c-0.1,0-11.1,1.8-13,6.9s-7.9,19.6-7.6,23.6s7.4,7.9,7.4,7.9h6.6
				c0,0-9.8-6.7-10.8-9.6s2.7-6.1,3.7-6.9c2.9-5.1,6.5-9.7,10.7-13.7c1.7-1.6,4.4-1.6,6.1,0c4.2,4,7.8,8.7,10.7,13.7
				c1,0.8,4.6,4,3.7,6.9s-9.8,9.5-9.8,9.5h5.6c0,0,7.1-3.9,7.4-7.9S230.4,163.6,228.4,158.4z"/>
			<path class="st15" d="M241.6,246.6c0.2-2.6-1.8-4.9-4.5-5c-2.6-0.2-4.9,1.8-5,4.5c-0.2,2.6,1.8,4.9,4.5,5c0,0,0,0,0,0l0,0
				C239.2,251.2,241.5,249.2,241.6,246.6z"/>
			<path class="st10" d="M234.6,225v20.5c0,0-11.6,4.3-13.2,4.1s-1.6-18.2-1.6-18.2l2.1-5.5L234.6,225z"/>
			<path class="st10" d="M197.4,225v20.5c0,0,11.6,4.3,13.2,4.1s1.6-18.2,1.6-18.2l-2.1-5.5L197.4,225z"/>
			<path class="st1" d="M201.3,313.9l0.9,8.4c0,0-8.5,14.1-11.9,14.5s-1.9-5.6,0-8.3s5.7-8.4,5.7-8.4l1.4-6.1L201.3,313.9z"/>
			<path class="st1" d="M227.3,313.9l-0.9,8.4c0,0,8.5,14.1,11.9,14.5s1.9-5.6,0-8.3s-5.7-8.5-5.7-8.5l-1.4-6.1H227.3z"/>
			<path class="st0" d="M194.7,251.3H238c1.6,0,3.1-1.1,3.4-2.7l3.6-15.6c0.5-2.7-1.3-5.2-4-5.7c0,0,0,0,0,0
				c-0.3-0.1-0.6-0.1-0.9-0.1l-49.6,0.4c-2.7,0-4.9,2.2-4.9,4.9c0,0,0,0,0,0c0,0.3,0,0.6,0.1,0.9l5.6,15.6
				C191.9,250.4,193.2,251.3,194.7,251.3z"/>
			
				<linearGradient id="SVGID_1_" gradientUnits="userSpaceOnUse" x1="208.44" y1="693.1684" x2="163.6" y2="694.2285" gradientTransform="matrix(1 0 0 1 0 -454)">
				<stop  offset="0" style="stop-color:#484EC2;stop-opacity:0"/>
				<stop  offset="1" style="stop-color:#444BCC;stop-opacity:0.5"/>
			</linearGradient>
			<path class="st16" d="M221.2,227.3l-30.6,0.2c-2.7,0-4.9,2.2-4.9,4.9c0,0,0,0,0,0c0,0.3,0,0.6,0.1,0.9l5.5,15.6
				c0.5,1.4,1.8,2.4,3.3,2.4h7.8L221.2,227.3z"/>
			<ellipse class="st2" cx="214.9" cy="241.3" rx="4.4" ry="4"/>
		</g>
	</g>
</g>
</svg>
